<svg width="24" height="24" viewBox="0 0 24 24" fill="none" xmlns="http://www.w3.org/2000/svg">
<g clip-path="url(#clip0_2520_2979)">
<path fill-rule="evenodd" clip-rule="evenodd" d="M1 5C1.55228 5 2 5.44772 2 6V9H5C5.55228 9 6 9.44772 6 10C6 10.5523 5.55228 11 5 11H1C0.447715 11 0 10.5523 0 10V6C0 5.44772 0.447715 5 1 5Z" fill="black"/>
<path fill-rule="evenodd" clip-rule="evenodd" d="M18 14C18 13.4477 18.4477 13 19 13H23C23.5523 13 24 13.4477 24 14V18C24 18.5523 23.5523 19 23 19C22.4477 19 22 18.5523 22 18V15H19C18.4477 15 18 14.5523 18 14Z" fill="black"/>
<path fill-rule="evenodd" clip-rule="evenodd" d="M9.22695 2.39617C10.8497 1.9268 12.5648 1.87614 14.2124 2.24893C15.86 2.62171 17.3863 3.40579 18.6489 4.52799C19.9115 5.6502 20.8692 7.07396 21.4327 8.66642C21.617 9.18707 21.3442 9.75849 20.8236 9.94273C20.3029 10.127 19.7315 9.85426 19.5473 9.33361C19.0965 8.05964 18.3303 6.92064 17.3202 6.02287C16.3101 5.12511 15.0891 4.49785 13.771 4.19962C12.453 3.90139 11.0808 3.94191 9.78267 4.31741C8.48451 4.69291 7.30262 5.39113 6.34729 6.34694C6.3399 6.35434 6.3324 6.36161 6.32478 6.36877L1.68478 10.7288C1.2823 11.107 0.649442 11.0873 0.27125 10.6848C-0.106942 10.2823 -0.0872528 9.64945 0.315226 9.27126L4.9441 4.92171C6.13627 3.73278 7.6094 2.86405 9.22695 2.39617ZM23.7288 13.3152C24.1069 13.7177 24.0873 14.3506 23.6848 14.7288L19.0559 19.0783C17.8637 20.2673 16.3906 21.136 14.7731 21.6039C13.1503 22.0732 11.4352 22.1239 9.7876 21.7511C8.14002 21.3783 6.61373 20.5942 5.35114 19.472C4.08855 18.3498 3.13081 16.9261 2.56729 15.3336C2.38305 14.813 2.65576 14.2415 3.17641 14.0573C3.69705 13.8731 4.26848 14.1458 4.45272 14.6664C4.90353 15.9404 5.66973 17.0794 6.6798 17.9772C7.68987 18.8749 8.91091 19.5022 10.229 19.8004C11.547 20.0986 12.9192 20.0581 14.2173 19.6826C15.5155 19.3071 16.6974 18.6089 17.6527 17.6531C17.6572 17.6486 17.6616 17.6442 17.6662 17.6399C17.6692 17.637 17.6722 17.6341 17.6752 17.6313L22.3152 13.2713C22.7177 12.8931 23.3506 12.9128 23.7288 13.3152Z" fill="black"/>
<path fill-rule="evenodd" clip-rule="evenodd" d="M9.08333 12C8.85321 12 8.66666 12.1866 8.66666 12.4167V15.3334C8.66666 15.5635 8.85321 15.75 9.08333 15.75H14.9167C15.1468 15.75 15.3333 15.5635 15.3333 15.3334V12.4167C15.3333 12.1866 15.1468 12 14.9167 12H9.08333ZM7.83333 12.4167C7.83333 11.7263 8.39297 11.1667 9.08333 11.1667H14.9167C15.607 11.1667 16.1667 11.7263 16.1667 12.4167V15.3334C16.1667 16.0237 15.607 16.5834 14.9167 16.5834H9.08333C8.39297 16.5834 7.83333 16.0237 7.83333 15.3334V12.4167Z" fill="black"/>
<path fill-rule="evenodd" clip-rule="evenodd" d="M12 8.25002C11.558 8.25002 11.134 8.42562 10.8215 8.73818C10.5089 9.05074 10.3333 9.47466 10.3333 9.91669V11.5834C10.3333 11.8135 10.1468 12 9.91667 12C9.68655 12 9.5 11.8135 9.5 11.5834V9.91669C9.5 9.25365 9.76339 8.61776 10.2322 8.14892C10.7011 7.68008 11.337 7.41669 12 7.41669C12.663 7.41669 13.2989 7.68008 13.7678 8.14892C14.2366 8.61776 14.5 9.25365 14.5 9.91669V11.5834C14.5 11.8135 14.3135 12 14.0833 12C13.8532 12 13.6667 11.8135 13.6667 11.5834V9.91669C13.6667 9.47466 13.4911 9.05074 13.1785 8.73818C12.866 8.42562 12.442 8.25002 12 8.25002Z" fill="black"/>
<path fill-rule="evenodd" clip-rule="evenodd" d="M9.08333 12C8.85321 12 8.66666 12.1866 8.66666 12.4167V15.3334C8.66666 15.5635 8.85321 15.75 9.08333 15.75H14.9167C15.1468 15.75 15.3333 15.5635 15.3333 15.3334V12.4167C15.3333 12.1866 15.1468 12 14.9167 12H9.08333ZM7.83333 12.4167C7.83333 11.7263 8.39297 11.1667 9.08333 11.1667H14.9167C15.607 11.1667 16.1667 11.7263 16.1667 12.4167V15.3334C16.1667 16.0237 15.607 16.5834 14.9167 16.5834H9.08333C8.39297 16.5834 7.83333 16.0237 7.83333 15.3334V12.4167Z" stroke="black" stroke-linecap="round" stroke-linejoin="round"/>
<path fill-rule="evenodd" clip-rule="evenodd" d="M12 8.25002C11.558 8.25002 11.134 8.42562 10.8215 8.73818C10.5089 9.05074 10.3333 9.47466 10.3333 9.91669V11.5834C10.3333 11.8135 10.1468 12 9.91667 12C9.68655 12 9.5 11.8135 9.5 11.5834V9.91669C9.5 9.25365 9.76339 8.61776 10.2322 8.14892C10.7011 7.68008 11.337 7.41669 12 7.41669C12.663 7.41669 13.2989 7.68008 13.7678 8.14892C14.2366 8.61776 14.5 9.25365 14.5 9.91669V11.5834C14.5 11.8135 14.3135 12 14.0833 12C13.8532 12 13.6667 11.8135 13.6667 11.5834V9.91669C13.6667 9.47466 13.4911 9.05074 13.1785 8.73818C12.866 8.42562 12.442 8.25002 12 8.25002Z" stroke="black" stroke-linecap="round" stroke-linejoin="round"/>
</g>
<defs>
<clipPath id="clip0_2520_2979">
<rect width="24" height="24" fill="white"/>
</clipPath>
</defs>
</svg>
